Coordinates
version=1
nRows=5
nColumns=40
inDegrees=yes

Units are S.I. units (second, meters, Newtons, ...)
If the header above contains a line with 'inDegrees', this indicates whether rotational values are in degrees (yes) or radians (no).

endheader
time	pelvis_tilt	pelvis_list	pelvis_rotation	pelvis_tx	pelvis_ty	pelvis_tz	hip_flexion_r	hip_adduction_r	hip_rotation_r	knee_angle_r	knee_angle_r_beta	ankle_angle_r	subtalar_angle_r	mtp_angle_r	hip_flexion_l	hip_adduction_l	hip_rotation_l	knee_angle_l	knee_angle_l_beta	ankle_angle_l	subtalar_angle_l	mtp_angle_l	lumbar_extension	lumbar_bending	lumbar_rotation	arm_flex_r	arm_add_r	arm_rot_r	elbow_flex_r	pro_sup_r	wrist_flex_r	wrist_dev_r	arm_flex_l	arm_add_l	arm_rot_l	elbow_flex_l	pro_sup_l	wrist_flex_l	wrist_dev_l
      0.12500000	    -18.84636289	      5.48089265	     16.00923787	     -2.15196492	      0.94523366	      0.28356120	     30.03346438	    -11.12081341	    -11.51567376	    112.12636112	      1.95697418	     -1.62720295	      0.00000000	      0.00000000	     39.32412940	      7.93153841	     -4.35365646	     43.54079948	      0.75993031	     11.65604601	      0.00000000	      0.00000000	    -25.84092200	     -7.14507364	    -11.48145414	    -13.62171810	    -15.93157462	    -16.44878164	     71.90502589	     44.13136440	      0.00000000	      0.00000000	     16.62984502	    -23.07738535	      4.37853841	     99.36003428	     46.17701807	      0.00000000	      0.00000000
      0.13000000	    -18.89661617	      4.79950653	     17.64518486	     -2.12310557	      0.94171687	      0.28107881	     32.95884418	    -11.73952990	    -12.06794531	    114.41446670	      1.99690916	      0.00712781	      0.00000000	      0.00000000	     37.54327777	      8.21513712	     -2.22948212	     43.87783565	      0.76581270	     14.19648713	      0.00000000	      0.00000000	    -25.34981149	     -5.80695594	    -13.27644840	    -16.26131531	    -15.74762735	    -16.13932258	     70.81478791	     44.12540379	      0.00000000	      0.00000000	     20.10769094	    -22.20368627	      4.65221616	    101.09941921	     46.25489207	      0.00000000	      0.00000000
      0.13500000	    -18.90735778	      4.03300256	     19.32054380	     -2.09452553	      0.93819862	      0.27855037	     35.94076665	    -12.45709802	    -12.59845581	    116.36701648	      2.03098758	      1.19325235	      0.00000000	      0.00000000	     35.74544160	      8.32858963	     -0.03241083	     44.08308264	      0.76939494	     15.86788909	      0.00000000	      0.00000000	    -24.82888559	     -4.28288196	    -15.39388875	    -18.56866393	    -15.48659040	    -15.70748878	     69.83236581	     44.10638389	      0.00000000	      0.00000000	     23.81741577	    -21.84551472	      4.50254378	    102.58454350	     46.32262956	      0.00000000	      0.00000000
      0.14000000	    -18.97660802	      3.12873893	     20.94828631	     -2.06625617	      0.93434927	      0.27614462	     39.12977191	    -13.16556219	    -12.98264301	    118.02772559	      2.05997242	      2.77832080	      0.00000000	      0.00000000	     34.18115091	      8.14576820	      2.01332602	     44.53348490	      0.77725594	     18.48546390	      0.00000000	      0.00000000	    -23.95446919	     -3.02463323	    -15.45745236	    -23.97355931	    -17.31425324	    -13.68031773	     71.07961438	     44.52105223	      0.00000000	      0.00000000	     29.86318373	    -19.59754333	      7.47701531	    101.57805521	     46.16065805	      0.00000000	      0.00000000
      0.14500000	    -19.02205695	      2.15219502	     22.55733716	     -2.03809131	      0.93060254	      0.27384627	     42.36425873	    -13.94473091	    -13.29394939	    119.30242309	      2.08222009	      4.13594917	      0.00000000	      0.00000000	     32.63938679	      7.74103036	      4.02774967	     44.85347259	      0.78284078	     20.50768707	      0.00000000	      0.00000000	    -23.19273113	     -1.46272133	    -17.20630046	    -26.76073826	    -17.38625185	    -13.25354278	     70.64764960	     44.58105573	      0.00000000	      0.00000000	     33.71224669	    -18.76584156	      7.62631401	    102.90139897	     46.19730433	      0.00000000	      0.00000000
